<svg width="35" height="35" viewBox="0 0 35 35" fill="none" xmlns="http://www.w3.org/2000/svg">
<path d="M28 23.1338V16.5227C28 15.3052 28 14.6964 27.6697 14.2381C27.4028 13.8679 26.9747 13.6711 26.2111 13.4062C26.055 15.2801 25.4344 17.1938 24.4598 18.8687C23.325 20.8189 21.6398 22.5625 19.4798 23.5048C18.221 24.054 16.779 24.054 15.5202 23.5048C13.3602 22.5625 11.675 20.8189 10.5402 18.8687C9.801 17.5983 9.26543 16.1905 8.98172 14.7669C8.53542 14.7011 8.19292 14.7349 7.89736 14.8998C7.77944 14.9656 7.66952 15.0448 7.56982 15.1358C7 15.6563 7 16.624 7 18.5593V24.3107C7 25.5282 7 26.137 7.33033 26.5953C7.66065 27.0536 8.23817 27.2461 9.3932 27.6311L9.84069 27.7802L9.8407 27.7802C11.6805 28.3935 12.6004 28.7001 13.5414 28.7019C13.8248 28.7025 14.1078 28.6823 14.3883 28.6417C15.3195 28.5069 16.1944 28.0695 17.9441 27.1946C19.2849 26.5242 19.9553 26.189 20.6675 26.0335C20.9175 25.9789 21.1707 25.9408 21.4257 25.9195C22.1521 25.8587 22.885 25.9808 24.3508 26.2251C25.8364 26.4727 26.5792 26.5965 27.1215 26.2851C27.3057 26.1793 27.469 26.0409 27.6037 25.8766C28 25.3929 28 24.6399 28 23.1338Z" fill="#333333"/>
<path fill-rule="evenodd" clip-rule="evenodd" d="M17.5 5.83334C13.634 5.83334 10.5 8.81081 10.5 12.4837C10.5 16.1278 12.7342 20.3801 16.2199 21.9008C17.0325 22.2553 17.9675 22.2553 18.7801 21.9008C22.2658 20.3801 24.5 16.1278 24.5 12.4837C24.5 8.81081 21.366 5.83334 17.5 5.83334ZM17.5 15.1667C18.7887 15.1667 19.8333 14.122 19.8333 12.8333C19.8333 11.5447 18.7887 10.5 17.5 10.5C16.2113 10.5 15.1667 11.5447 15.1667 12.8333C15.1667 14.122 16.2113 15.1667 17.5 15.1667Z" fill="#333333"/>
</svg>
