<svg width="151" height="37" viewBox="0 0 151 37" fill="none" xmlns="http://www.w3.org/2000/svg">
<g id="Group 784">
<path id="Vector" fill-rule="evenodd" clip-rule="evenodd" d="M17.182 0.162421C17.3064 -0.0541125 17.6176 -0.0541473 17.7419 0.162359L33.0328 26.7768C33.1571 26.9931 33.0016 27.2634 32.753 27.2634H30.7969C30.6236 27.2634 30.4636 27.1707 30.3769 27.02L17.6026 4.79C17.5404 4.68176 17.3848 4.68178 17.3227 4.79005L16.1589 6.81665C16.1013 6.91701 16.1013 7.04059 16.159 7.14095L30.2339 31.6451C30.3581 31.8614 30.2027 32.1318 29.9539 32.1318H22.4046C22.2317 32.1318 22.0718 32.0393 21.9851 31.8889L11.9826 14.5413C11.9203 14.4332 11.7649 14.4334 11.7028 14.5417L10.552 16.5505C10.4945 16.651 10.4946 16.7745 10.5523 16.8747L21.8486 36.5132C21.973 36.7295 21.8175 37 21.5687 37H13.9633C13.7891 37 13.6283 36.9062 13.5421 36.7542L6.43894 24.2356C6.37697 24.1263 6.22016 24.1263 6.15815 24.2355L4.57247 27.0289C4.48965 27.1748 4.48756 27.3532 4.56696 27.5011L5.4897 29.2189C5.60585 29.4352 5.4499 29.6976 5.20525 29.6976H0.823668C0.575669 29.6976 0.420072 29.4287 0.542891 29.2123L6.0128 19.5765C6.13678 19.3581 6.45031 19.3581 6.57433 19.5765L14.9936 34.4022C15.0511 34.5034 15.1582 34.5659 15.2743 34.5659H17.639C17.7634 34.5659 17.8412 34.4307 17.779 34.3225L7.79922 16.9612C7.71278 16.8109 7.71264 16.6256 7.79886 16.4751L11.5559 9.91639C11.6801 9.69979 11.991 9.69934 12.1157 9.91559L23.4757 29.6167C23.5045 29.6668 23.5579 29.6977 23.6155 29.6977H26.0368C26.1611 29.6977 26.2389 29.5625 26.1767 29.4542L13.4072 7.22231C13.3208 7.07179 13.3208 6.88641 13.4072 6.73587L17.182 0.162421ZM131.761 26.5406L128.277 20.2181C129.301 19.8762 130.26 19.1797 130.885 18.2959C131.509 17.4119 131.839 16.3508 131.824 15.2663C131.824 14.5452 131.679 13.8316 131.396 13.1692C131.112 12.5067 130.697 11.9094 130.176 11.4139C129.655 10.9184 129.038 10.5351 128.365 10.2874C127.691 10.0397 126.976 9.93289 126.259 9.97354H120.223C119.978 9.97354 119.779 10.1731 119.779 10.4193V12.0735C119.779 12.3197 119.978 12.5193 120.223 12.5193H126.229C126.664 12.5193 127.108 12.5655 127.361 12.6365C127.626 12.7141 128.062 12.9495 128.348 13.2073C128.633 13.465 128.862 13.7803 129.017 14.1325C129.174 14.4848 129.255 14.8662 129.255 15.2519C129.255 15.6377 129.174 16.0191 129.017 16.3713C128.862 16.7235 128.633 17.0388 128.348 17.2966C128.062 17.5543 127.726 17.7488 127.361 17.8674C127.052 17.9678 126.59 17.9893 126.229 17.9846H120.223C119.978 17.9846 119.779 18.1841 119.779 18.4303V26.7563C119.779 27.0025 119.978 27.2021 120.223 27.2021H121.852C122.097 27.2021 122.296 27.0025 122.296 26.7563V20.8275C122.296 20.6634 122.428 20.5303 122.592 20.5303H125.291C125.399 20.5303 125.496 20.5882 125.549 20.6816L129.082 26.9751C129.16 27.1154 129.308 27.2021 129.469 27.2021H131.373C131.712 27.2021 131.926 26.8376 131.761 26.5406ZM53.2205 22.2248H48.116C48.0003 22.2248 47.8953 22.2924 47.847 22.3978L45.7359 27.0027C45.6634 27.1609 45.5058 27.2622 45.3324 27.2622H43.3983C43.0735 27.2622 42.8584 26.9237 42.9955 26.6283L46.0272 20.0921C46.1002 19.9348 46.2572 19.8344 46.4299 19.8344H51.8342C52.0511 19.8344 52.1944 19.6081 52.1024 19.4111L50.1842 15.3031C50.1354 15.1988 50.0308 15.1321 49.916 15.1321H49.0251C48.7004 15.1321 48.4853 14.7938 48.6224 14.4983L50.2939 10.8927C50.4531 10.5493 50.9396 10.549 51.0993 10.8922L58.4158 26.6279C58.5532 26.9235 58.3383 27.2622 58.0132 27.2622H56.0556C55.8836 27.2622 55.7271 27.1625 55.6538 27.0065L53.4884 22.3954C53.4395 22.2913 53.3352 22.2248 53.2205 22.2248ZM107.342 27.2021C112.085 27.2021 115.93 23.3435 115.93 18.5836C115.93 13.8237 112.085 9.96512 107.342 9.96512C102.6 9.96512 98.7552 13.8237 98.7552 18.5836C98.7552 23.3435 102.6 27.2021 107.342 27.2021ZM107.342 24.676C110.695 24.676 113.413 21.9484 113.413 18.5836C113.413 15.2189 110.695 12.4912 107.342 12.4912C103.99 12.4912 101.272 15.2189 101.272 18.5836C101.272 21.9484 103.99 24.676 107.342 24.676ZM95.5481 23.7678C95.6893 23.5797 95.6467 23.3149 95.4615 23.1705L94.1803 22.1731C93.9742 22.0126 93.6764 22.0651 93.5183 22.2733C92.4094 23.7335 90.6581 24.676 88.6875 24.676C85.335 24.676 82.6172 21.9484 82.6172 18.5836C82.6172 15.2189 85.335 12.4912 88.6875 12.4912C90.6634 12.4912 92.4189 13.4387 93.5273 14.9058C93.6852 15.1147 93.9837 15.1677 94.1901 15.0068L95.4709 14.009C95.6559 13.8648 95.6985 13.6004 95.5579 13.4124C93.9912 11.3192 91.497 9.96512 88.6875 9.96512C83.9449 9.96512 80.1004 13.8237 80.1004 18.5836C80.1004 23.3435 83.9449 27.2021 88.6875 27.2021C91.491 27.2021 93.9808 25.8537 95.5481 23.7678ZM76.3624 23.1705C76.5478 23.3149 76.5903 23.5797 76.4491 23.7678C74.8818 25.8537 72.3921 27.2021 69.5885 27.2021C64.846 27.2021 61.0013 23.3435 61.0013 18.5836C61.0013 13.8237 64.846 9.96512 69.5885 9.96512C72.3979 9.96512 74.8922 11.3192 76.4588 13.4124C76.5995 13.6004 76.557 13.8648 76.3719 14.009L75.0912 15.0068C74.8848 15.1677 74.5862 15.1147 74.4284 14.9058C73.3199 13.4387 71.5645 12.4912 69.5885 12.4912C66.2361 12.4912 63.5183 15.2189 63.5183 18.5836C63.5183 21.9484 66.2361 24.676 69.5885 24.676C71.5592 24.676 73.3104 23.7335 74.4193 22.2733C74.5774 22.0651 74.8753 22.0126 75.0813 22.1731L76.3624 23.1705ZM136.362 9.96512H138.434H141.84V9.9667C146.549 10.0066 150.5 13.8485 150.5 18.5836C150.5 23.3186 146.549 27.1619 141.84 27.2018L141.765 27.2021H138.434H136.362C136.116 27.2021 135.917 27.0025 135.917 26.7563V24.676V12.4912V10.4109C135.917 10.1647 136.116 9.96512 136.362 9.96512ZM138.434 12.4912H141.765V12.493C145.117 12.493 147.984 15.2189 147.984 18.5836C147.984 21.9484 145.117 24.676 141.765 24.676H138.434V12.4912Z" fill="white"/>
</g>
</svg>
