<svg width="139" height="32" viewBox="0 0 139 32" fill="none" xmlns="http://www.w3.org/2000/svg">
<path id="Vector" d="M9.07658 30.0009H7.32522V28.5101H6.98468V31.8984H7.32522V30.3059H9.07658V31.8887H9.41712V28.5004H9.07658V30.0009ZM16.909 28.9505C16.7419 28.794 16.5474 28.6693 16.335 28.5827C15.9036 28.4133 15.4237 28.4133 14.9923 28.5827C14.7794 28.664 14.5845 28.7856 14.4182 28.9409C14.2493 29.0992 14.1123 29.2882 14.0144 29.4975C13.9073 29.7245 13.854 29.9729 13.8588 30.2236C13.8578 30.4542 13.9076 30.6822 14.0047 30.8915C14.0961 31.0995 14.2284 31.2871 14.3939 31.4434C14.5611 31.5986 14.7536 31.7246 14.9631 31.8161C15.1819 31.9069 15.4168 31.953 15.6539 31.9516C15.8873 31.9523 16.1186 31.9079 16.335 31.8209C16.5456 31.7373 16.7398 31.6177 16.909 31.4676C17.075 31.3089 17.2088 31.1199 17.3031 30.9109C17.3993 30.6927 17.4489 30.457 17.4489 30.2187C17.4489 29.9804 17.3993 29.7448 17.3031 29.5265C17.2091 29.3117 17.0754 29.1163 16.909 28.9505ZM16.9966 30.7657C16.9215 30.9459 16.8125 31.1102 16.6755 31.2497C16.5334 31.38 16.3685 31.4834 16.189 31.5547C16.0117 31.6281 15.8216 31.6659 15.6296 31.666C15.4354 31.6663 15.2433 31.6268 15.0652 31.5498C14.8947 31.478 14.7396 31.3745 14.6079 31.2449C14.4762 31.1131 14.3691 30.9591 14.2917 30.7899C14.2125 30.6124 14.1715 30.4203 14.1715 30.226C14.1715 30.0317 14.2125 29.8396 14.2917 29.6621C14.4418 29.3136 14.7229 29.0374 15.075 28.8925C15.2534 28.8183 15.4448 28.7802 15.6381 28.7803C15.8315 28.7804 16.0229 28.8187 16.2012 28.893C16.3795 28.9673 16.5413 29.0761 16.677 29.2131C16.8127 29.3501 16.9197 29.5126 16.9917 29.6911C17.0691 29.8683 17.1088 30.0594 17.1085 30.2526C17.1028 30.429 17.0649 30.6028 16.9966 30.7657ZM23.5982 30.4946C23.5378 30.3782 23.4533 30.2759 23.3501 30.1945C23.2077 30.0825 23.0412 30.0047 22.8636 29.967L22.5523 29.8702C22.4618 29.8466 22.3761 29.8072 22.2993 29.754C22.2298 29.7122 22.1701 29.6561 22.1242 29.5895C22.0796 29.5114 22.0577 29.4226 22.0609 29.3329C22.0593 29.2585 22.0725 29.1844 22.0999 29.1151C22.1281 29.0451 22.1694 28.9811 22.2215 28.9263C22.2739 28.8689 22.3388 28.8242 22.4112 28.7956C22.4944 28.7609 22.5837 28.7428 22.6739 28.7424C22.7528 28.7416 22.8309 28.7581 22.9026 28.7908C22.9738 28.8241 23.0395 28.8682 23.0972 28.9215C23.1519 28.977 23.1949 29.0428 23.2236 29.1151C23.257 29.1897 23.2736 29.2707 23.2723 29.3523H23.6128C23.6127 29.1747 23.56 29.0011 23.4614 28.853C23.3628 28.705 23.2226 28.5891 23.0582 28.5197C22.9376 28.4715 22.8088 28.4469 22.6788 28.4471C22.4269 28.4417 22.1828 28.5337 21.9977 28.7037C21.9144 28.788 21.8469 28.8863 21.7982 28.9941C21.7498 29.1091 21.725 29.2325 21.7253 29.3571C21.7194 29.4984 21.7512 29.6387 21.8177 29.7637C21.8755 29.864 21.9554 29.95 22.0512 30.0154C22.1389 30.078 22.2357 30.127 22.3382 30.1606L22.6058 30.2429L22.8199 30.3155C22.9069 30.3443 22.9902 30.3833 23.068 30.4317C23.1456 30.4912 23.2144 30.5612 23.2723 30.6398C23.3349 30.7361 23.3656 30.8496 23.3599 30.9642C23.3595 31.0586 23.3414 31.1522 23.3063 31.2401C23.2662 31.3189 23.2136 31.3908 23.1507 31.453C23.0887 31.5114 23.016 31.5574 22.9366 31.5886C22.8117 31.6363 22.6759 31.6485 22.5444 31.6237C22.4129 31.5989 22.291 31.5381 22.1923 31.4482C22.0677 31.3171 21.9966 31.1446 21.9928 30.9642H21.6523C21.6483 31.1317 21.685 31.2978 21.7593 31.4482C21.8218 31.5688 21.9097 31.6745 22.0172 31.758C22.1169 31.8357 22.2309 31.8932 22.3528 31.9274C22.469 31.9564 22.5882 31.971 22.708 31.971C22.8498 31.9703 22.9903 31.9424 23.1215 31.8887C23.2421 31.8383 23.3513 31.7642 23.4426 31.6709C23.5308 31.5784 23.6031 31.4721 23.6566 31.3562C23.7051 31.2362 23.7299 31.108 23.7296 30.9787V30.8093C23.7106 30.6957 23.6657 30.5881 23.5982 30.4946ZM29.9226 28.7085L29.7766 28.6262L29.5918 28.5585L29.3534 28.5197H28.1274V31.908H28.468V30.5285H29.3777C29.4581 30.5247 29.5379 30.5134 29.6161 30.4946C29.68 30.481 29.742 30.4598 29.801 30.4317C29.8536 30.412 29.9029 30.3842 29.9469 30.3494C30.0765 30.2665 30.1822 30.1514 30.2534 30.0154C30.3303 29.8655 30.3703 29.6997 30.3703 29.5314C30.3703 29.3631 30.3303 29.1972 30.2534 29.0473C30.1798 28.9117 30.0747 28.7956 29.9469 28.7085H29.9226ZM29.9226 29.8799C29.8558 29.9965 29.7512 30.087 29.6258 30.1364L29.4896 30.1848H28.468V28.815H29.3583C29.4052 28.8102 29.4524 28.8102 29.4993 28.815L29.6355 28.8634C29.7604 28.9161 29.8646 29.0078 29.9323 29.1248C29.996 29.2335 30.0296 29.3571 30.0296 29.483C30.0344 29.6217 30.0008 29.759 29.9323 29.8799H29.9226ZM34.3788 28.5101H34.7193V31.8984H34.3788V28.5101ZM38.7864 28.815H39.5648V31.8887H39.9053V28.815H40.6788V28.5101H38.7864V28.815ZM45.5486 28.5101L44.0891 31.8984H44.4442L44.9307 30.7609H46.5069L46.9934 31.8984H47.3632L45.9037 28.5101H45.5486ZM45.0621 30.4462L45.7578 28.8925L46.4048 30.4462H45.0621ZM51.7513 28.5101H51.4107V31.8984H53.1524V31.5837H51.7513V28.5101ZM57.2048 28.5101H57.5454V31.8984H57.2048V28.5101ZM61.6124 28.815H62.3908V31.8887H62.7313V28.815H63.5048V28.5101H61.6124V28.815ZM68.6227 30.4027L67.6497 28.5101H67.2702L68.4524 30.7609V31.8887H68.7881V30.7609L69.98 28.5101H69.5957L68.6227 30.4027ZM81.1108 30.4946C81.0494 30.3789 80.965 30.2768 80.8627 30.1945C80.7203 30.0825 80.5538 30.0047 80.3762 29.967C80.2692 29.938 80.167 29.9089 80.0649 29.8702C79.9729 29.8465 79.8856 29.8072 79.807 29.754C79.7375 29.7122 79.6778 29.6561 79.6319 29.5895C79.5893 29.5107 79.5675 29.4224 79.5687 29.3329C79.5687 29.2582 79.5835 29.1841 79.6124 29.1151C79.6419 29.0469 79.6813 28.9833 79.7292 28.9263C79.7834 28.8689 79.8499 28.8242 79.9238 28.7956C80.0062 28.7585 80.096 28.7403 80.1865 28.7424C80.2654 28.7416 80.3434 28.7581 80.4151 28.7908C80.4849 28.8242 80.549 28.8683 80.6049 28.9215C80.6627 28.9755 80.7075 29.0416 80.7362 29.1151C80.7696 29.1897 80.7862 29.2707 80.7849 29.3523H81.1254C81.1245 29.2329 81.1014 29.1148 81.0573 29.0038C81.0121 28.8953 80.946 28.7966 80.8627 28.7134C80.7799 28.6248 80.6786 28.5554 80.566 28.5101C80.4453 28.4618 80.3165 28.4372 80.1865 28.4375C80.057 28.4379 79.9286 28.4609 79.807 28.5052C79.6952 28.5482 79.5928 28.6123 79.5054 28.694C79.4181 28.7749 79.3499 28.8741 79.306 28.9844C79.2538 29.0984 79.2272 29.2222 79.2281 29.3475C79.2237 29.4892 79.2573 29.6295 79.3254 29.754C79.3842 29.8521 79.4619 29.9377 79.5541 30.0057C79.6435 30.0684 79.7419 30.1173 79.846 30.151L80.1087 30.2332L80.3276 30.3059C80.4146 30.3347 80.4979 30.3737 80.5757 30.422C80.654 30.4767 80.7244 30.5418 80.7849 30.6156C80.8475 30.7119 80.8782 30.8254 80.8724 30.9399C80.8728 31.035 80.8529 31.129 80.8141 31.2159C80.7757 31.2945 80.7248 31.3664 80.6633 31.4288C80.5991 31.4867 80.5249 31.5327 80.4443 31.5644C80.3642 31.5976 80.2781 31.6141 80.1914 31.6128C80.1017 31.615 80.0126 31.5994 79.9291 31.567C79.8455 31.5346 79.7693 31.486 79.7049 31.424C79.5789 31.2934 79.5061 31.1209 79.5005 30.9399H79.1697C79.1626 31.1078 79.1995 31.2746 79.2768 31.424C79.3392 31.5446 79.4272 31.6503 79.5346 31.7338C79.6323 31.8119 79.7448 31.8695 79.8654 31.9032C79.9789 31.9378 80.0969 31.9557 80.2157 31.9564C80.356 31.9558 80.4948 31.9278 80.6243 31.8741C80.7467 31.8243 80.8576 31.7502 80.9503 31.6563C81.0386 31.5649 81.1095 31.4583 81.1595 31.3417C81.2118 31.2227 81.2383 31.094 81.2373 30.9642V30.8093C81.2163 30.7055 81.1749 30.6068 81.1157 30.5188L81.1108 30.4946ZM88.4811 28.9505C88.3124 28.7961 88.1182 28.6716 87.9071 28.5827C87.474 28.4135 86.9926 28.4135 86.5595 28.5827C86.3466 28.664 86.1517 28.7856 85.9854 28.9409C85.8166 29.0992 85.6795 29.2882 85.5816 29.4975C85.4783 29.7255 85.4268 29.9735 85.4308 30.2236C85.4306 30.4536 85.4786 30.6811 85.5719 30.8915C85.6635 31.1087 85.8012 31.3036 85.9757 31.4627C86.1404 31.6212 86.3334 31.7477 86.5449 31.8354C86.7621 31.9258 86.9954 31.9719 87.2308 31.971C87.4658 31.9712 87.6986 31.9268 87.9168 31.8403C88.1279 31.7513 88.3221 31.6269 88.4908 31.4724C88.6537 31.3111 88.7871 31.1227 88.8849 30.9157C88.9836 30.6973 89.0346 30.4606 89.0346 30.2211C89.0346 29.9817 88.9836 29.745 88.8849 29.5265C88.7781 29.3105 88.6331 29.1154 88.4568 28.9505H88.4811ZM88.5638 30.7657C88.4905 30.9457 88.3831 31.11 88.2476 31.2497C88.1055 31.38 87.9406 31.4834 87.7611 31.5547C87.5838 31.6281 87.3937 31.6659 87.2016 31.666C87.009 31.6668 86.8184 31.6272 86.6422 31.5498C86.2956 31.4051 86.0185 31.1329 85.8687 30.7899C85.7872 30.619 85.7456 30.432 85.747 30.2429C85.7465 30.048 85.7855 29.855 85.8615 29.6754C85.9376 29.4957 86.0492 29.3332 86.1898 29.1974C86.3306 29.0655 86.4958 28.9619 86.6762 28.8925C86.8546 28.8183 87.0461 28.7802 87.2394 28.7803C87.4327 28.7804 87.6241 28.8187 87.8025 28.893C87.9808 28.9673 88.1425 29.0761 88.2782 29.2131C88.4139 29.3501 88.5209 29.5126 88.593 29.6911C88.6703 29.8683 88.7101 30.0594 88.7098 30.2526C88.6956 30.4315 88.646 30.6059 88.5638 30.7657ZM93.8179 28.5101H93.4336V31.8984H95.1752V31.5837H93.7741L93.8179 28.5101ZM101.115 30.6156C101.125 30.73 101.125 30.845 101.115 30.9593C101.101 31.0522 101.071 31.1421 101.028 31.2255C100.983 31.3098 100.924 31.3853 100.852 31.4482C100.796 31.5016 100.73 31.5443 100.658 31.574C100.6 31.6039 100.538 31.622 100.473 31.6273H100.176C100.112 31.622 100.049 31.6039 99.9914 31.574C99.9193 31.5443 99.8534 31.5016 99.7968 31.4482C99.7252 31.3853 99.6658 31.3098 99.6217 31.2255C99.5781 31.1421 99.5485 31.0522 99.5341 30.9593C99.5269 30.8449 99.5269 30.7301 99.5341 30.6156V28.5101H99.1936V30.6156C99.1865 30.8558 99.2296 31.0948 99.3201 31.3175C99.369 31.4345 99.4419 31.54 99.5341 31.6273C99.6137 31.704 99.7038 31.7692 99.8017 31.8209C99.8919 31.8675 99.9886 31.9001 100.089 31.9177C100.26 31.9564 100.438 31.9564 100.609 31.9177C100.708 31.9023 100.804 31.8695 100.891 31.8209C100.99 31.7709 101.081 31.7055 101.159 31.6273C101.253 31.5402 101.327 31.4347 101.378 31.3175C101.468 31.0948 101.511 30.8558 101.504 30.6156V28.5101H101.164L101.115 30.6156ZM105.528 28.815H106.306V31.8887H106.647V28.815H107.42V28.5101H105.528V28.815ZM111.492 28.5101H111.833V31.8984H111.492V28.5101ZM119.329 28.9505C119.163 28.7951 118.97 28.6705 118.76 28.5827C118.327 28.4135 117.846 28.4135 117.413 28.5827C117.2 28.664 117.005 28.7856 116.838 28.9409C116.67 29.0992 116.533 29.2882 116.435 29.4975C116.331 29.7255 116.28 29.9735 116.284 30.2236C116.284 30.4536 116.332 30.6811 116.425 30.8915C116.518 31.0997 116.652 31.2873 116.819 31.4434C116.984 31.6019 117.177 31.7283 117.388 31.8161C117.607 31.9077 117.842 31.9522 118.079 31.9468C118.314 31.947 118.547 31.9026 118.765 31.8161C119.196 31.6429 119.544 31.3121 119.738 30.8915C119.834 30.6733 119.884 30.4376 119.884 30.1994C119.884 29.9611 119.834 29.7254 119.738 29.5072C119.637 29.2998 119.5 29.1115 119.334 28.9505H119.329ZM119.417 30.7657C119.344 30.9457 119.236 31.11 119.101 31.2497C118.959 31.38 118.794 31.4834 118.614 31.5547C118.437 31.6281 118.247 31.6659 118.055 31.666C117.862 31.6668 117.671 31.6272 117.495 31.5498C117.315 31.4804 117.15 31.3768 117.009 31.2449C116.877 31.1131 116.77 30.9591 116.693 30.7899C116.615 30.6178 116.575 30.4314 116.576 30.2429C116.575 30.048 116.614 29.855 116.69 29.6754C116.766 29.4957 116.878 29.3332 117.018 29.1974C117.159 29.0655 117.325 28.9619 117.505 28.8925C117.859 28.7489 118.256 28.7496 118.61 28.8944C118.964 29.0393 119.247 29.3167 119.397 29.6669C119.484 29.8373 119.529 30.0255 119.529 30.2163C119.529 30.4071 119.484 30.5953 119.397 30.7657H119.417ZM126.675 31.3127L124.783 28.5101H124.326V31.8984H124.666V28.9167L126.68 31.8887H127.021V28.5004H126.68L126.675 31.3127ZM133.389 30.4946C133.327 30.3789 133.243 30.2768 133.141 30.1945C132.998 30.0834 132.831 30.0057 132.654 29.967C132.542 29.938 132.44 29.9041 132.338 29.8702C132.247 29.8466 132.162 29.8072 132.085 29.754C132.016 29.7122 131.956 29.6561 131.91 29.5895C131.865 29.5114 131.843 29.4226 131.847 29.3329C131.847 29.2587 131.861 29.1851 131.886 29.1151C131.914 29.0451 131.955 28.9811 132.007 28.9263C132.06 28.8689 132.124 28.8242 132.197 28.7956C132.28 28.7609 132.369 28.7428 132.46 28.7424C132.538 28.7416 132.617 28.7581 132.688 28.7908C132.834 28.8539 132.951 28.9698 133.014 29.1151C133.043 29.1908 133.058 29.2712 133.058 29.3523H133.399C133.4 29.2327 133.377 29.114 133.33 29.0038C133.287 28.8955 133.223 28.7968 133.141 28.7134C133.056 28.6247 132.953 28.5554 132.839 28.5101C132.718 28.4618 132.59 28.4372 132.46 28.4375C132.332 28.4384 132.205 28.4613 132.085 28.5052C131.973 28.5482 131.871 28.6123 131.783 28.694C131.696 28.7759 131.627 28.8748 131.579 28.9844C131.531 29.0994 131.506 29.2228 131.506 29.3475C131.5 29.4887 131.532 29.629 131.599 29.754C131.656 29.8543 131.736 29.9404 131.832 30.0057C131.92 30.0683 132.017 30.1173 132.119 30.151L132.387 30.2332L132.601 30.3059C132.688 30.3347 132.771 30.3737 132.849 30.422C132.928 30.4814 132.998 30.5514 133.058 30.6302C133.126 30.7337 133.162 30.855 133.16 30.9787C133.165 31.0736 133.146 31.1681 133.107 31.2546C133.068 31.3332 133.017 31.4051 132.956 31.4676C132.824 31.5908 132.65 31.6593 132.469 31.6593C132.289 31.6593 132.115 31.5908 131.983 31.4676C131.861 31.3348 131.79 31.1633 131.783 30.9835H131.443C131.439 31.1511 131.476 31.3171 131.55 31.4676C131.612 31.5881 131.7 31.6938 131.808 31.7773C131.907 31.855 132.021 31.9126 132.143 31.9468C132.255 31.9813 132.372 31.9992 132.489 32C132.631 31.9994 132.771 31.9714 132.902 31.9177C133.023 31.8673 133.132 31.7932 133.223 31.6999C133.312 31.6074 133.384 31.5011 133.437 31.3853C133.486 31.2652 133.511 31.1371 133.51 31.0077V30.8093C133.48 30.6962 133.429 30.5896 133.36 30.4946H133.389ZM16.3836 7.44456C15.1346 5.7307 13.3123 4.51616 11.244 4.01915C9.17578 3.52213 6.99719 3.77521 5.09966 4.73293C3.20212 5.69065 1.71001 7.29022 0.891402 9.24428C0.0727911 11.1983 -0.0186677 13.3788 0.633457 15.3939C1.28558 17.4091 2.63854 19.1268 4.44928 20.2385C6.26001 21.3502 8.40983 21.783 10.5125 21.4592C12.6152 21.1353 14.5329 20.0761 15.9211 18.4718C17.3093 16.8674 18.077 14.8231 18.0863 12.7061V0H16.3836V7.44456ZM9.21279 19.8457C7.78485 19.8562 6.38581 19.4453 5.19241 18.6651C3.999 17.8849 3.06477 16.7702 2.5077 15.462C1.95063 14.1538 1.79572 12.7106 2.06254 11.3148C2.32936 9.91902 3.00593 8.63322 4.00681 7.61982C5.00768 6.60641 6.28795 5.91086 7.68591 5.62102C9.08387 5.33118 10.5368 5.46005 11.8612 5.99136C13.1856 6.52268 14.322 7.43259 15.1269 8.60617C15.9319 9.77975 16.3692 11.1644 16.3836 12.5851V12.6577C16.3888 14.5564 15.6367 16.3797 14.2923 17.7273C12.9479 19.0749 11.1211 19.8367 9.21279 19.8457ZM116.785 11.8009H107.41V13.5532H115.053C114.842 15.2783 114.008 16.8683 112.707 18.0275C111.406 19.1867 109.725 19.8361 107.979 19.8549C106.232 19.8737 104.539 19.2606 103.212 18.1297C101.886 16.9988 101.018 15.4271 100.769 13.707C100.521 11.9868 100.909 10.2354 101.861 8.77853C102.813 7.32166 104.265 6.25855 105.946 5.78698C107.627 5.31541 109.423 5.46748 111 6.21491C112.577 6.96235 113.827 8.25424 114.518 9.85025H116.342C115.611 7.73656 114.108 5.9738 112.131 4.91226C110.154 3.85072 107.848 3.56812 105.671 4.1206C103.494 4.67308 101.606 6.0202 100.382 7.89427C99.157 9.76835 98.686 12.0322 99.0621 14.2359C99.4381 16.4396 100.634 18.4219 102.411 19.7889C104.189 21.1559 106.418 21.8074 108.656 21.6141C110.894 21.4208 112.977 20.3967 114.492 18.7454C116.006 17.0941 116.84 14.9365 116.829 12.7013C116.809 12.3818 116.785 12.101 116.785 11.8009ZM64.0594 3.79005C62.4128 3.77967 60.7953 4.22239 59.3857 5.06932C57.9761 5.91624 56.8292 7.13439 56.0718 8.58918C55.3144 10.044 54.976 11.6788 55.0938 13.313C55.2117 14.9472 55.7813 16.5171 56.7397 17.8494C57.6981 19.1817 59.008 20.2244 60.5247 20.8624C62.0414 21.5004 63.7059 21.7088 65.3342 21.4646C66.9624 21.2204 68.4912 20.5331 69.7515 19.4786C71.0117 18.4241 71.9545 17.0435 72.4757 15.4893H70.6562C70.0411 16.9405 68.9608 18.1483 67.5836 18.9246C66.2064 19.7009 64.6097 20.002 63.0426 19.781C61.4754 19.56 60.0257 18.8293 58.9196 17.7027C57.8135 16.5762 57.1131 15.1172 56.9275 13.5532H72.8892C72.9184 13.2579 72.9378 12.9578 72.9378 12.6529C72.9378 10.3073 72.0034 8.05741 70.3392 6.39615C68.675 4.73488 66.4168 3.79773 64.0594 3.79005ZM56.9178 11.8493C57.1075 10.0985 57.9409 8.47913 59.2578 7.30254C60.5747 6.12594 62.2822 5.47511 64.0521 5.47511C65.8221 5.47511 67.5295 6.12594 68.8464 7.30254C70.1633 8.47913 70.9967 10.0985 71.1865 11.8493H56.9178ZM137.033 13.5774H138.75C138.779 13.2837 138.794 12.9836 138.794 12.6771C138.788 10.4508 137.94 8.30834 136.419 6.67561C134.898 5.04289 132.815 4.03952 130.584 3.865C128.354 3.69048 126.139 4.35761 124.38 5.73373C122.621 7.10985 121.447 9.09416 121.092 11.2921C120.736 13.4901 121.225 15.7407 122.461 17.5964C123.697 19.4521 125.59 20.7771 127.763 21.3078C129.936 21.8385 132.23 21.5361 134.189 20.4608C136.148 19.3854 137.629 17.6158 138.336 15.5039H136.512C135.897 16.955 134.817 18.1628 133.439 18.9391C132.062 19.7155 130.466 20.0166 128.898 19.7955C127.331 19.5745 125.882 18.8438 124.775 17.7173C123.669 16.5907 122.969 15.1317 122.783 13.5677H137.033V13.5774ZM122.778 11.8493C122.973 10.1029 123.809 8.48922 125.124 7.31723C126.44 6.14524 128.144 5.49723 129.91 5.49723C131.676 5.49723 133.381 6.14524 134.696 7.31723C136.012 8.48922 136.848 10.1029 137.042 11.8493H122.778ZM94.893 12.7061V0H93.1903V7.44456C91.9413 5.7307 90.1189 4.51616 88.0507 4.01915C85.9825 3.52213 83.8039 3.77521 81.9063 4.73293C80.0088 5.69065 78.5167 7.29022 77.6981 9.24428C76.8795 11.1983 76.788 13.3788 77.4401 15.3939C78.0923 17.4091 79.4452 19.1268 81.256 20.2385C83.0667 21.3502 85.2165 21.783 87.3192 21.4592C89.4219 21.1353 91.3396 20.0761 92.7278 18.4718C94.116 16.8674 94.8837 14.8231 94.893 12.7061ZM85.9903 19.8457C84.5615 19.8543 83.1622 19.4411 81.9694 18.6585C80.7766 17.8758 79.8438 16.7588 79.2891 15.4487C78.7343 14.1386 78.5825 12.6942 78.8527 11.2982C79.123 9.90225 79.8032 8.61735 80.8074 7.60602C81.8116 6.59469 83.0946 5.90235 84.4943 5.61655C85.894 5.33075 87.3474 5.46433 88.6707 6.00038C89.9941 6.53644 91.128 7.45091 91.929 8.62814C92.73 9.80538 93.1622 11.1925 93.1709 12.6141V12.6577C93.1741 13.5985 92.991 14.5306 92.6321 15.401C92.2732 16.2714 91.7456 17.0629 91.0792 17.7304C90.4129 18.3978 89.621 18.9282 88.7486 19.2911C87.8763 19.6541 86.9407 19.8425 85.9952 19.8457H85.9903Z" fill="white"/>
</svg>
