<svg width="1193" height="2102" viewBox="0 0 1193 2102" fill="none" xmlns="http://www.w3.org/2000/svg">
<g opacity="0.3" filter="url(#filter0_f_1665_3478)">
<circle cx="142" cy="1051" r="551" fill="url(#paint0_linear_1665_3478)"/>
</g>
<path fill-rule="evenodd" clip-rule="evenodd" d="M812 1853H-2V1155H812V1853ZM-0.452471 1156.55H114.065V1271.08H-0.452471V1156.55ZM230.129 1271.08H115.612V1156.55H230.129V1271.08ZM231.677 1271.08H346.194V1156.55H231.677V1271.08ZM462.259 1271.08H347.741V1156.55H462.259V1271.08ZM463.806 1271.08H578.323V1156.55H463.806V1271.08ZM694.388 1271.08H579.871V1156.55H694.388V1271.08ZM695.935 1271.08H810.452V1156.55H695.935V1271.08ZM694.388 1272.62H579.871V1387.15H694.388V1272.62ZM810.452 1387.15H695.935V1272.62H810.452V1387.15ZM694.388 1851.45V1736.92H579.871V1851.45H694.388ZM695.935 1735.38H810.452V1620.85H695.935V1735.38ZM694.388 1735.38H579.871V1620.85H694.388V1735.38ZM810.452 1736.92H695.935V1851.45H810.452V1736.92ZM578.323 1736.92V1851.45H463.806V1736.92H578.323ZM463.806 1735.38H578.323V1620.85H463.806V1735.38ZM462.259 1851.45V1736.92H347.741V1851.45H462.259ZM462.259 1735.38H347.741V1620.85H462.259V1735.38ZM346.194 1736.92V1851.45H231.677V1736.92H346.194ZM231.677 1735.38H346.194V1620.85H231.677V1735.38ZM230.129 1851.45V1736.92H115.612V1851.45H230.129ZM230.129 1735.38H115.612V1620.85H230.129V1735.38ZM114.065 1736.92V1851.45H-0.452471V1736.92H114.065ZM-0.452471 1735.38H114.065V1620.85H-0.452471V1735.38ZM810.452 1504.77V1619.3H695.935V1504.77H810.452ZM694.388 1504.77V1619.3H579.871V1504.77H694.388ZM578.323 1619.3H463.806V1504.77H578.323V1619.3ZM347.741 1619.3H462.259V1504.77H347.741V1619.3ZM346.194 1619.3H231.677V1504.77H346.194V1619.3ZM115.612 1619.3H230.129V1504.77H115.612V1619.3ZM114.065 1619.3H-0.452471V1504.77H114.065V1619.3ZM695.935 1503.23H810.452V1388.7H695.935V1503.23ZM694.388 1503.23H579.871V1388.7H694.388V1503.23ZM463.806 1503.23H578.323V1388.7H463.806V1503.23ZM462.259 1503.23H347.741V1388.7H462.259V1503.23ZM231.677 1503.23H346.194V1388.7H231.677V1503.23ZM230.129 1503.23H115.612V1388.7H230.129V1503.23ZM-0.452471 1503.23H114.065V1388.7H-0.452471V1503.23ZM578.323 1387.15V1272.62H463.806V1387.15H578.323ZM347.741 1387.15H462.259V1272.62H347.741V1387.15ZM346.194 1387.15H231.677V1272.62H346.194V1387.15ZM115.612 1387.15H230.129V1272.62H115.612V1387.15ZM114.065 1387.15H-0.452471V1272.62H114.065V1387.15Z" fill="url(#paint1_linear_1665_3478)"/>
<defs>
<filter id="filter0_f_1665_3478" x="-909" y="0" width="2102" height="2102" filterUnits="userSpaceOnUse" color-interpolation-filters="sRGB">
<feFlood flood-opacity="0" result="BackgroundImageFix"/>
<feBlend mode="normal" in="SourceGraphic" in2="BackgroundImageFix" result="shape"/>
<feGaussianBlur stdDeviation="250" result="effect1_foregroundBlur_1665_3478"/>
</filter>
<linearGradient id="paint0_linear_1665_3478" x1="171.289" y1="433.489" x2="171.289" y2="1726.48" gradientUnits="userSpaceOnUse">
<stop stop-color="#903AFD"/>
<stop offset="1" stop-color="#E657E5"/>
</linearGradient>
<linearGradient id="paint1_linear_1665_3478" x1="-166.754" y1="1127.65" x2="755.281" y2="1707.25" gradientUnits="userSpaceOnUse">
<stop stop-color="white" stop-opacity="0.12"/>
<stop offset="0.0001" stop-color="white" stop-opacity="0.1"/>
<stop offset="1" stop-color="white" stop-opacity="0"/>
</linearGradient>
</defs>
</svg>
