<svg width="169" height="48" viewBox="0 0 169 48" fill="none" xmlns="http://www.w3.org/2000/svg">
<path d="M166.801 20.3365C167.789 21.3846 168.286 22.8055 168.286 24.6058V34.0765H164.621V25.6795C164.621 24.6186 164.322 23.7828 163.723 23.172C163.123 22.5612 162.314 22.2526 161.288 22.2526C160.077 22.2718 159.114 22.6898 158.407 23.4999C157.699 24.31 157.342 25.3516 157.342 26.6182V34.0765H153.703V13.0325H157.342V21.796C158.369 19.8093 160.172 18.7999 162.747 18.7613C164.456 18.7613 165.813 19.2821 166.801 20.3365ZM145.608 22.0211C144.397 22.0211 143.409 22.439 142.657 23.2684C141.905 24.1043 141.523 25.178 141.523 26.5025C141.523 27.8656 141.905 28.9586 142.657 29.7944C143.416 30.6239 144.397 31.0418 145.615 31.0418C147.406 31.0418 148.751 30.4438 149.649 29.2544L151.918 31.1575C151.249 32.1412 150.331 32.9256 149.261 33.4272C148.158 33.9544 146.883 34.218 145.424 34.218C143.951 34.218 142.638 33.8965 141.491 33.2536C140.363 32.6299 139.432 31.6847 138.82 30.5467C138.183 29.3829 137.864 28.0456 137.864 26.5346C137.864 25.0044 138.189 23.6478 138.833 22.4776C139.451 21.3267 140.388 20.388 141.523 19.7579C142.67 19.1149 143.989 18.7934 145.487 18.7934C146.851 18.7934 148.069 19.0313 149.139 19.5135C150.21 19.9958 151.083 20.6837 151.759 21.571L149.547 23.6992C148.521 22.5805 147.215 22.0211 145.608 22.0211ZM135.538 18.9027V34.0765H131.898V31.6654C131.382 32.4756 130.662 33.1378 129.814 33.5815C128.966 34.0251 127.991 34.2501 126.889 34.2501C125.467 34.2501 124.224 33.9222 123.147 33.2728C122.076 32.6235 121.235 31.704 120.642 30.521C120.05 29.3379 119.75 27.9813 119.75 26.4511C119.75 24.9401 120.05 23.6028 120.649 22.439C121.242 21.2753 122.083 20.3751 123.154 19.7322C124.224 19.0892 125.461 18.7677 126.863 18.7677C127.966 18.7677 128.947 18.9928 129.801 19.4364C130.656 19.88 131.382 20.5359 131.898 21.3524V18.9156L135.538 18.9027ZM130.579 30.0323C131.344 29.2865 131.784 28.2964 131.898 27.0683V25.9946C131.784 24.7601 131.35 23.7764 130.585 23.0305C129.821 22.2847 128.852 21.9118 127.673 21.9118C126.423 21.9118 125.404 22.3426 124.62 23.2041C123.836 24.0657 123.434 25.178 123.415 26.5346C123.434 27.8977 123.836 29.0036 124.62 29.8652C125.404 30.7267 126.423 31.1575 127.673 31.1575C128.845 31.1575 129.814 30.7846 130.579 30.0323ZM116.085 20.8573C117.29 22.2397 117.889 24.175 117.889 26.6697C117.889 27.1583 117.876 27.5312 117.863 27.7756H106.805C107.047 28.8557 107.544 29.698 108.303 30.3152C109.055 30.9325 109.985 31.2347 111.088 31.2347C111.84 31.2347 112.592 31.0868 113.287 30.791C113.982 30.5081 114.606 30.0773 115.123 29.5308L117.079 31.6012C116.321 32.4434 115.39 33.0992 114.345 33.53C113.274 33.9865 112.082 34.2116 110.776 34.2116C109.246 34.2116 107.895 33.8901 106.728 33.2471C105.588 32.6299 104.644 31.6847 104.026 30.5403C103.389 29.3765 103.076 28.0392 103.076 26.5282C103.076 25.0173 103.395 23.6735 104.045 22.5033C104.67 21.3524 105.607 20.4008 106.748 19.7643C107.908 19.1085 109.221 18.787 110.693 18.787C113.083 18.787 114.881 19.4814 116.085 20.8573ZM114.562 25.313C114.524 24.1943 114.16 23.307 113.472 22.6448C112.784 21.9825 111.866 21.6482 110.725 21.6482C109.66 21.6482 108.768 21.9761 108.048 22.6255C107.328 23.2749 106.888 24.1686 106.716 25.3066H114.562V25.313ZM99.1182 19.5714C99.985 19.0506 100.998 18.7806 102.159 18.7613V22.3361C100.61 22.2397 99.3732 22.6062 98.449 23.4292C97.5248 24.2521 97.0595 25.3645 97.0595 26.7597V34.0765H93.4201V18.9027H97.0595V21.8218C97.5694 20.838 98.2514 20.0858 99.1182 19.5714ZM90.6921 33.1378C89.5002 33.8772 88.2446 34.2437 86.938 34.2437C85.6505 34.2437 84.5924 33.8579 83.7766 33.0928C82.9544 32.3277 82.5465 31.1961 82.5465 29.7044V15.3536L86.1604 14.9164V19.52H90.4435V22.214H86.1604V29.055C86.1604 29.7559 86.2879 30.2509 86.5492 30.5403C86.8105 30.836 87.1993 30.9775 87.722 30.9775C88.2828 30.9775 88.9903 30.7717 89.8508 30.3538L90.6921 33.1378ZM75.803 18.9027H79.4169V27.4091C79.4169 32.3727 75.9942 34.218 72.5206 34.218C69.0469 34.218 65.6305 32.3727 65.6305 27.4091V18.9027H69.2444V27.5377C69.2444 29.4408 70.6467 30.9839 72.5269 30.9839C74.4072 30.9839 75.8094 29.4408 75.8094 27.5377L75.803 18.9027ZM58.1414 15.3022C59.7029 16.1573 61.0032 17.4239 61.9083 18.9606C62.8261 20.5101 63.2786 22.2333 63.2786 24.1236C63.2786 26.0138 62.8197 27.737 61.9083 29.2994C61.0032 30.8489 59.7029 32.1284 58.1414 33.0028C56.5416 33.9094 54.776 34.3659 52.832 34.3659C50.888 34.3659 49.1225 33.9094 47.5291 33.0028C45.9675 32.1284 44.6673 30.8489 43.7622 29.2994C42.8507 27.737 42.3918 26.0138 42.3918 24.1236C42.3918 22.2333 42.8507 20.5101 43.7622 18.9606C44.6673 17.4175 45.9675 16.1573 47.5291 15.3022C49.1225 14.4149 50.8944 13.9713 52.832 13.9713C54.776 13.9648 56.5479 14.4085 58.1414 15.3022ZM49.5623 18.2662C48.5489 18.8449 47.7075 19.6871 47.1275 20.703C46.5284 21.7382 46.2288 22.8762 46.2288 24.1236C46.2288 25.3709 46.5348 26.5154 47.1403 27.5569C47.7267 28.5793 48.568 29.428 49.575 30.0259C50.5948 30.6303 51.6975 30.9325 52.8958 30.9325C54.0494 30.9389 55.1839 30.6239 56.1719 30.0259C57.1726 29.428 57.9948 28.5793 58.5684 27.5569C59.1612 26.5089 59.4607 25.3259 59.448 24.1236C59.448 22.8762 59.1548 21.7382 58.5684 20.703C58.0011 19.6936 57.1726 18.8513 56.1719 18.2662C55.1776 17.6747 54.0494 17.3661 52.8958 17.3725C51.723 17.3661 50.5757 17.6747 49.5623 18.2662ZM14.9656 5.4585C20.1219 5.4585 27.9107 7.05946 31.531 10.7307C32.4488 11.663 33.6534 13.4826 33.6534 16.1573C33.6534 20.9023 29.8738 28.187 25.7053 32.4177C23.551 34.6038 20.1219 37.4585 15.5073 37.4585C10.9947 37.4585 7.5529 34.3594 6.55859 33.3436C2.73434 29.473 0 23.5963 0 18.1248C0 14.6656 0.975184 11.6437 3.45457 9.12978C5.74912 6.80871 9.70722 5.4585 14.9656 5.4585ZM21.3457 24.3936C23.0857 22.6319 23.5574 20.4587 23.5574 19.2628C23.5574 18.3948 23.3343 17.1282 22.2635 16.0416C20.6255 14.3763 18.8026 13.907 16.8267 13.907C14.3218 13.907 12.6391 14.7107 11.5174 15.8423C10.6378 16.7424 9.87932 18.1055 9.87932 20.0536C9.87932 21.9954 10.9055 23.8728 12.0145 25.0044C13.0471 26.046 14.666 26.8175 16.2913 26.8175C17.923 26.8175 19.6057 26.1553 21.3457 24.3936Z" fill="#5952FF"/>
</svg>
