<svg width="126" height="40" viewBox="0 0 126 40" fill="none" xmlns="http://www.w3.org/2000/svg">
<g id="Group">
<path id="Vector" d="M41.6836 9.44287H48.3152L53.4291 23.2162H53.5941L58.2131 9.44287H64.4818L56.5305 29.7055H49.8989L41.6836 9.44287Z" fill="#FC9E15"/>
<path id="Vector_2" d="M17.3691 14.409H11.2654V21.2295C11.2654 22.3883 11.4303 23.8782 12.4201 24.5404C13.4099 25.2025 14.8946 25.037 16.0494 24.8715C16.7092 24.8715 17.0392 24.7059 17.3691 24.3748V29.5067C16.5443 29.6722 15.8844 29.8378 15.0596 30.0033C10.7705 30.5 4.46879 29.6722 4.46879 24.0437V14.409H0.179688V9.44271H4.46879V3.48311H11.2654V9.44271H17.3691V14.409ZM34.7565 9.44271H40.8602V29.7054H34.7565V9.44271ZM34.4265 3.94663C34.4265 2.12564 35.9112 0.635742 37.7258 0.635742C39.5405 0.635742 41.0251 2.12564 41.0251 3.94663C41.0251 5.76762 39.5405 7.25752 37.7258 7.25752C36.0762 7.29063 34.4265 5.76762 34.4265 3.94663Z" fill="#1391D2"/>
<path id="Vector_3" d="M111.136 19.5409C111.136 22.1896 112.786 24.6727 115.59 24.6727C118.56 24.6727 120.044 22.3551 120.044 19.5409C120.044 16.8921 118.395 14.409 115.59 14.409C112.621 14.409 111.136 16.7266 111.136 19.5409ZM105.527 19.5409C105.527 15.2367 107.837 11.065 111.961 9.57508C116.085 8.08518 121.067 9.24399 123.707 12.7204C126.181 16.0313 126.511 21.0308 124.531 24.8383C122.552 28.8114 117.933 30.6323 113.611 29.8046C108.497 29.01 105.527 24.5403 105.527 19.5409Z" fill="#E3403D"/>
<path id="Vector_4" d="M98.8931 9.27696V12.0912H98.7282C98.5632 11.9257 98.3982 11.7601 98.0683 11.2635C94.1091 7.78706 87.1476 8.44923 84.6731 13.4156C83.3534 15.8987 83.1884 19.0441 83.5183 21.8914C83.8483 24.3746 84.8381 27.1889 86.9826 28.7119C89.4571 30.3673 92.7564 30.6984 95.5938 29.5396C96.9135 29.043 97.7384 28.0497 98.0683 27.5531V29.5396C98.0683 31.0295 97.7384 32.1883 96.9135 33.016C95.0989 34.837 91.7996 34.6715 89.4571 34.1749C88.3023 33.8438 86.9826 33.3471 85.8279 32.5194L83.0234 36.9891C84.6731 38.1479 86.1578 38.8101 87.8074 39.3067C92.2615 40.4655 98.3982 40.4655 101.698 36.9891C103.677 35.0026 104.337 32.1883 104.337 28.1821V9.27696H98.8931ZM97.4084 23.2158C95.7588 25.2023 92.4595 25.2023 90.8098 23.2158C89.1602 21.2293 89.1602 17.7528 90.8098 15.7332C92.4595 13.7135 95.7588 13.7467 97.4084 15.7332C99.0581 17.7197 99.0581 21.2293 97.4084 23.2158C98.2333 22.2225 96.5836 24.2091 97.4084 23.2158Z" fill="#E3403D"/>
<path id="Vector_5" d="M19.0204 9.44279H25.2891V12.7537C25.949 11.4293 26.7738 10.6016 27.5986 9.93943C29.5782 8.61507 32.7126 9.1117 33.0425 9.27725V14.9058C31.7228 14.5747 29.0833 14.078 27.2687 15.2369C26.114 15.899 25.1242 16.8923 25.1242 21.362V29.8379H18.8555V9.44279H19.0204Z" fill="#1391D2"/>
<path id="Vector_6" d="M70.2897 21.5604C69.135 22.3882 68.1452 23.878 69.2999 25.0369C70.4547 26.1957 72.4343 26.0301 73.754 25.5335C75.2387 25.0369 76.3935 23.878 76.3935 22.0571V20.7327C76.5914 20.8983 71.9394 20.5341 70.2897 21.5604ZM76.5914 27.1889C75.7666 28.1822 74.9418 29.0099 73.787 29.5066C69.3329 31.3276 63.0312 29.5066 63.0312 24.0436C63.0312 18.2495 69.2999 17.0576 73.787 16.8921H76.5914C76.5914 15.7333 76.2615 14.9055 75.4367 14.2434C73.952 12.919 71.6425 13.0845 69.8278 13.9123C69.003 14.4089 68.1782 14.9055 67.5183 15.7333L64.219 12.2568C65.3738 11.2636 66.6935 10.4358 68.3431 9.77366C70.9826 8.78039 74.2819 8.61485 76.9543 9.44257C79.5938 10.1047 81.2434 12.2568 81.9033 14.9055C82.2332 16.2299 82.2332 17.7198 82.2332 19.3752V29.6721H76.6244C76.5914 29.6721 76.5914 27.1889 76.5914 27.1889Z" fill="#FC9E15"/>
</g>
</svg>
