<svg width="1440" height="519" viewBox="0 0 1440 519" fill="none" xmlns="http://www.w3.org/2000/svg">
<path d="M-78.0802 345.569C70.5646 161.255 441.068 -149.089 733.923 84.0508C1026.78 317.191 1360.36 206.753 1490.54 122.391M-67.2891 370.297C81.3557 185.983 451.859 -124.361 744.715 108.778C1037.57 341.918 1371.15 231.48 1501.33 147.119M-56.4979 395.025C92.1468 210.71 462.65 -99.6336 755.506 133.506C1048.36 366.646 1381.94 256.208 1512.12 171.846M-45.7068 419.752C102.938 235.438 473.441 -74.9059 766.297 158.234C1059.15 391.373 1392.73 280.935 1522.91 196.574M-34.9157 444.48C113.729 260.165 484.233 -50.1783 777.088 182.961C1069.94 416.101 1403.52 305.663 1533.7 221.302M-24.1245 469.207C124.52 284.893 495.024 -25.4506 787.879 207.689C1080.73 440.829 1414.31 330.391 1544.5 246.029M-13.3334 493.935C135.311 309.621 505.815 -0.722984 798.67 232.417C1091.53 465.556 1425.1 355.118 1555.29 270.757M-2.54228 518.663C146.102 334.348 516.606 24.0047 809.461 257.144C1102.32 490.284 1435.9 379.846 1566.08 295.485" stroke="url(#paint0_linear_327_51)"/>
<defs>
<linearGradient id="paint0_linear_327_51" x1="-480" y1="-288.5" x2="1353" y2="488" gradientUnits="userSpaceOnUse">
<stop stop-color="white" stop-opacity="0.56"/>
<stop offset="1" stop-color="white" stop-opacity="0"/>
</linearGradient>
</defs>
</svg>
